#N canvas 57 107 671 354 10;
#X obj 130 336 dac~;
#X obj 65 285 *~;
#X obj 67 310 hip~ 10;
#X obj 21 11 oscReceive 5000;
#X obj 389 313 oscSend 5001;
#X obj 184 311 hip~ 10;
#X obj 183 282 *~;
#X obj 433 155 loadbang;
#X msg 433 175 \; pd dsp 1;
#X obj 146 211 gate~, f 29;
#X obj 337 245 line~;
#X msg 365 223 \$1 50;
#N canvas 98 103 680 304 fm 0;
#X obj 164 32 inlet;
#X obj 15 26 inlet;
#X obj 320 16 inlet;
#X obj 486 23 inlet;
#X obj 146 321 osc~;
#X obj 320 183 osc~;
#X obj 474 189 osc~;
#X obj 146 273 *~;
#X obj 145 299 +~;
#X obj 346 203 *~;
#X obj 497 212 *~;
#X obj 304 83 t b f;
#X obj 465 75 t b f;
#X obj 158 221 *;
#X obj 486 43 sel 0;
#X obj 196 347 outlet~;
#X obj 320 36 sel 0;
#X obj 419 228 +~;
#X obj 19 103 t b f;
#X obj 64 289 line~;
#X obj 107 343 *~;
#X obj 168 65 sel 0;
#X obj 158 147 t b f;
#X obj 202 228 line~;
#X obj 359 138 pack;
#X msg 343 110 1, f 2;
#X msg 366 85 0;
#X msg 502 107 1;
#X msg 514 79 0;
#X obj 509 133 pack;
#X obj 513 162 line~;
#X obj 363 159 line~;
#X msg 29 213 0;
#X msg 70 214 1;
#X obj 62 263 pack;
#X obj 291 141 line~;
#X obj 291 161 mtof~;
#X obj 443 142 line~;
#X obj 447 165 mtof~;
#X obj 538 107 r e;
#X obj 374 108 r e;
#X obj 79 237 r e, f 4;
#X msg 198 202 \$1 50;
#X msg 290 117 \$1 50;
#X msg 441 108 \$1 50;
#X obj 184 105 mtof;
#X connect 0 0 21 0;
#X connect 1 0 18 0;
#X connect 2 0 16 0;
#X connect 3 0 14 0;
#X connect 4 0 20 1;
#X connect 5 0 9 0;
#X connect 6 0 10 0;
#X connect 7 0 8 0;
#X connect 8 0 4 0;
#X connect 9 0 17 0;
#X connect 10 0 17 1;
#X connect 11 0 25 0;
#X connect 11 1 43 0;
#X connect 12 0 27 0;
#X connect 12 1 44 0;
#X connect 13 0 7 1;
#X connect 14 0 28 0;
#X connect 14 1 12 0;
#X connect 16 0 26 0;
#X connect 16 1 11 0;
#X connect 17 0 7 0;
#X connect 18 0 13 0;
#X connect 18 1 13 1;
#X connect 19 0 20 0;
#X connect 20 0 15 0;
#X connect 21 0 32 0;
#X connect 21 1 45 0;
#X connect 22 0 33 0;
#X connect 22 1 13 0;
#X connect 22 1 42 0;
#X connect 23 0 8 1;
#X connect 24 0 31 0;
#X connect 25 0 24 0;
#X connect 26 0 24 0;
#X connect 27 0 29 0;
#X connect 28 0 29 0;
#X connect 29 0 30 0;
#X connect 30 0 10 1;
#X connect 31 0 9 1;
#X connect 32 0 34 0;
#X connect 33 0 34 0;
#X connect 34 0 19 0;
#X connect 35 0 36 0;
#X connect 36 0 5 0;
#X connect 37 0 38 0;
#X connect 38 0 6 0;
#X connect 39 0 29 1;
#X connect 40 0 24 1;
#X connect 41 0 34 1;
#X connect 42 0 23 0;
#X connect 43 0 35 0;
#X connect 44 0 37 0;
#X connect 45 0 22 0;
#X restore 19 138 pd fm;
#N canvas 46 119 731 325 add 0;
#X obj 69 16 inlet;
#X obj 278 17 inlet;
#X obj 479 25 inlet;
#X obj 282 184 osc~;
#X obj 467 191 osc~;
#X obj 184 252 +~;
#X obj 304 207 *~;
#X obj 490 214 *~;
#X obj 258 74 t b f;
#X obj 454 74 t b f;
#X obj 479 45 sel 0;
#X obj 182 297 outlet~;
#X obj 278 37 sel 0;
#X obj 300 229 +~;
#X obj 77 211 osc~;
#X obj 99 234 *~;
#X obj 52 75 t b f;
#X obj 68 36 sel 0;
#X obj 185 275 *~ 0.33;
#X msg 500 100 0;
#X msg 487 100 1;
#X obj 502 150 line~;
#X obj 434 164 mtof~;
#X obj 434 144 line~;
#X obj 508 124 pack;
#X msg 310 110 1, f 2;
#X msg 321 110 0;
#X obj 323 165 line~;
#X obj 326 140 pack;
#X obj 242 140 line~;
#X obj 242 160 mtof~;
#X obj 119 200 line~;
#X msg 106 133 1, f 2;
#X msg 117 133 0;
#X obj 122 163 pack;
#X obj 35 168 line~;
#X obj 35 188 mtof~;
#X obj 155 135 r e;
#X obj 359 113 r e;
#X obj 541 99 r e, f 4;
#X msg 30 142 \$1 50;
#X msg 231 110 \$1 50;
#X msg 429 106 \$1 50;
#X connect 0 0 17 0;
#X connect 1 0 12 0;
#X connect 2 0 10 0;
#X connect 3 0 6 0;
#X connect 4 0 7 0;
#X connect 5 0 18 0;
#X connect 6 0 13 0;
#X connect 7 0 13 1;
#X connect 8 0 25 0;
#X connect 8 1 41 0;
#X connect 9 0 20 0;
#X connect 9 1 42 0;
#X connect 10 0 19 0;
#X connect 10 1 9 0;
#X connect 12 0 26 0;
#X connect 12 1 8 0;
#X connect 13 0 5 1;
#X connect 14 0 15 0;
#X connect 15 0 5 0;
#X connect 16 0 32 0;
#X connect 16 1 40 0;
#X connect 17 0 33 0;
#X connect 17 1 16 0;
#X connect 18 0 11 0;
#X connect 19 0 24 0;
#X connect 20 0 24 0;
#X connect 21 0 7 1;
#X connect 22 0 4 0;
#X connect 23 0 22 0;
#X connect 24 0 21 0;
#X connect 25 0 28 0;
#X connect 26 0 28 0;
#X connect 27 0 6 1;
#X connect 28 0 27 0;
#X connect 29 0 30 0;
#X connect 30 0 3 0;
#X connect 31 0 15 1;
#X connect 32 0 34 0;
#X connect 33 0 34 0;
#X connect 34 0 31 0;
#X connect 35 0 36 0;
#X connect 36 0 14 0;
#X connect 37 0 34 1;
#X connect 38 0 28 1;
#X connect 39 0 24 1;
#X connect 40 0 35 0;
#X connect 41 0 29 0;
#X connect 42 0 23 0;
#X restore 127 138 pd add;
#N canvas 64 115 614 381 fmSynth 0;
#X obj 165 33 inlet;
#X obj 15 26 inlet;
#X obj 286 12 inlet;
#X obj 496 49 inlet;
#X obj 146 321 osc~;
#X obj 289 222 osc~;
#X obj 489 250 osc~;
#X obj 145 277 *~;
#X obj 145 299 +~;
#X obj 311 245 *~;
#X obj 505 271 *~;
#X obj 272 63 t b f;
#X obj 468 115 t b f;
#X obj 160 227 *;
#X obj 496 69 sel 0;
#X obj 196 347 outlet~;
#X obj 286 32 sel 0;
#X obj 367 261 +~;
#X obj 19 103 t b f;
#X obj 107 343 *~;
#X obj 162 57 sel 0;
#X obj 270 96 / 24;
#X obj 269 155 *;
#X obj 269 117 t b f;
#X obj 470 143 / 24;
#X obj 471 186 *;
#X obj 469 164 t b f;
#X obj 203 215 line~;
#X msg 40 259 0;
#X msg 82 235 1;
#X obj 87 257 r e;
#X msg 325 100 1, f 2;
#X msg 337 73 0;
#X obj 326 169 line~;
#X obj 64 289 pack;
#X obj 67 313 line~;
#X obj 332 129 pack;
#X obj 357 108 r e;
#X msg 519 124 0;
#X obj 527 206 line~;
#X msg 519 147 1;
#X obj 532 182 pack;
#X obj 576 148 r e;
#X msg 203 193 \$1 50;
#X obj 277 201 line~;
#X msg 273 178 \$1 50;
#X obj 473 228 line~;
#X msg 469 207 \$1 50;
#X obj 166 148 t b f;
#X obj 181 106 mtof;
#X connect 0 0 20 0;
#X connect 1 0 18 0;
#X connect 2 0 16 0;
#X connect 3 0 14 0;
#X connect 4 0 19 1;
#X connect 5 0 9 0;
#X connect 6 0 10 0;
#X connect 7 0 8 0;
#X connect 8 0 4 0;
#X connect 9 0 17 0;
#X connect 10 0 17 1;
#X connect 11 0 31 0;
#X connect 11 1 21 0;
#X connect 12 0 40 0;
#X connect 12 1 24 0;
#X connect 13 0 7 1;
#X connect 14 0 38 0;
#X connect 14 1 12 0;
#X connect 16 0 32 0;
#X connect 16 1 11 0;
#X connect 17 0 7 0;
#X connect 18 0 13 0;
#X connect 18 1 13 1;
#X connect 19 0 15 0;
#X connect 20 0 28 0;
#X connect 20 1 49 0;
#X connect 21 0 23 0;
#X connect 22 0 45 0;
#X connect 23 0 22 0;
#X connect 23 1 22 1;
#X connect 24 0 26 0;
#X connect 25 0 47 0;
#X connect 26 0 25 0;
#X connect 26 1 25 1;
#X connect 27 0 8 1;
#X connect 28 0 34 0;
#X connect 29 0 34 0;
#X connect 30 0 34 1;
#X connect 31 0 36 0;
#X connect 32 0 36 0;
#X connect 33 0 9 1;
#X connect 34 0 35 0;
#X connect 35 0 19 0;
#X connect 36 0 33 0;
#X connect 37 0 36 1;
#X connect 38 0 41 0;
#X connect 39 0 10 1;
#X connect 40 0 41 0;
#X connect 41 0 39 0;
#X connect 42 0 41 1;
#X connect 43 0 27 0;
#X connect 44 0 5 0;
#X connect 45 0 44 0;
#X connect 46 0 6 0;
#X connect 47 0 46 0;
#X connect 48 0 29 0;
#X connect 48 1 43 0;
#X connect 48 1 13 0;
#X connect 49 0 22 0;
#X connect 49 0 25 0;
#X connect 49 0 48 0;
#X restore 229 137 pd fmSynth;
#X obj 21 36 route indice note1 note2 note3 env mode niveau, f 72
;
#X obj 307 78 s e;
#X obj 307 57 * 100;
#X connect 1 0 2 0;
#X connect 2 0 0 0;
#X connect 3 0 15 0;
#X connect 5 0 0 1;
#X connect 6 0 5 0;
#X connect 7 0 8 0;
#X connect 9 0 6 0;
#X connect 9 0 1 0;
#X connect 10 0 6 1;
#X connect 10 0 1 1;
#X connect 11 0 10 0;
#X connect 12 0 9 1;
#X connect 13 0 9 2;
#X connect 14 0 9 3;
#X connect 15 0 12 0;
#X connect 15 0 14 0;
#X connect 15 1 13 0;
#X connect 15 1 12 2;
#X connect 15 1 14 2;
#X connect 15 2 13 1;
#X connect 15 2 12 3;
#X connect 15 2 14 3;
#X connect 15 3 12 1;
#X connect 15 3 13 2;
#X connect 15 3 14 1;
#X connect 15 4 17 0;
#X connect 15 5 9 5;
#X connect 15 6 11 0;
#X connect 17 0 16 0;
