#N canvas 34 140 737 325 10;
#X obj 275 153 inlet~;
#X obj 20 259 outlet~;
#X obj 191 175 *~, f 4;
#X obj 305 173 *~;
#X obj 662 10 inlet;
#X obj 160 153 inlet~;
#X obj 324 153 line~;
#X msg 286 97 1 50;
#X msg 208 93 0 50;
#X msg 340 97 0 50;
#X obj 215 153 line~;
#X msg 169 93 1 50;
#X obj 391 153 inlet~;
#X msg 414 96 1 50;
#X msg 482 94 0 50;
#X obj 427 175 *~;
#X obj 446 152 line~;
#X obj 234 10 select 0 1 2 3, f 28;
#X obj 517 152 inlet~;
#X msg 540 95 1 50;
#X msg 608 93 0 50;
#X obj 553 174 *~;
#X obj 586 151 line~;
#X obj 19 170 inlet~;
#X obj 235 278 outlet~;
#X obj 343 272 outlet~;
#X obj 492 277 outlet~;
#X obj 589 274 outlet~;
#X obj 235 255 *~, f 4;
#X obj 342 245 *~;
#X obj 492 253 *~;
#X obj 590 246 *~;
#X connect 0 0 3 0;
#X connect 2 0 1 0;
#X connect 3 0 1 0;
#X connect 4 0 17 0;
#X connect 5 0 2 0;
#X connect 6 0 3 1;
#X connect 6 0 29 1;
#X connect 7 0 6 0;
#X connect 8 0 10 0;
#X connect 9 0 6 0;
#X connect 10 0 2 1;
#X connect 10 0 28 1;
#X connect 11 0 10 0;
#X connect 12 0 15 0;
#X connect 13 0 16 0;
#X connect 14 0 16 0;
#X connect 15 0 1 0;
#X connect 16 0 15 1;
#X connect 16 0 30 1;
#X connect 17 0 9 0;
#X connect 17 0 11 0;
#X connect 17 0 14 0;
#X connect 17 0 20 0;
#X connect 17 1 7 0;
#X connect 17 1 8 0;
#X connect 17 1 14 0;
#X connect 17 1 20 0;
#X connect 17 2 13 0;
#X connect 17 2 8 0;
#X connect 17 2 9 0;
#X connect 17 2 20 0;
#X connect 17 3 19 0;
#X connect 17 3 14 0;
#X connect 17 3 9 0;
#X connect 17 3 8 0;
#X connect 18 0 21 0;
#X connect 19 0 22 0;
#X connect 20 0 22 0;
#X connect 21 0 1 0;
#X connect 22 0 21 1;
#X connect 22 0 31 1;
#X connect 23 0 28 0;
#X connect 23 0 29 0;
#X connect 23 0 30 0;
#X connect 23 0 31 0;
#X connect 28 0 24 0;
#X connect 29 0 25 0;
#X connect 30 0 26 0;
#X connect 31 0 27 0;
