#N canvas 45 142 450 300 10;
#X obj 90 173 oscparse;
#X obj 90 146 netreceive -u -b;
#X obj 21 277 s echo;
#X obj 130 11 loadbang;
#X obj 89 207 list trim;
#X obj 164 266 outlet;
#X obj 167 58 \$1;
#X obj 135 35 t b b;
#X msg 169 79 add2 \$1;
#X obj 55 244 route echo close;
#X obj 112 275 t b;
#X msg 253 122 listen 0;
#X msg 118 114 listen;
#X connect 0 0 4 0;
#X connect 1 0 0 0;
#X connect 3 0 7 0;
#X connect 4 0 9 0;
#X connect 6 0 8 0;
#X connect 7 0 12 0;
#X connect 7 1 6 0;
#X connect 8 0 12 0;
#X connect 9 0 2 0;
#X connect 9 1 10 0;
#X connect 9 2 5 0;
#X connect 10 0 11 0;
#X connect 11 0 1 0;
#X connect 12 0 1 0;
