#N canvas 98 91 600 331 10;
#X obj 339 122 spigot;
#X obj 270 230 gemhead;
#X obj 270 253 color 1 0 0;
#X obj 447 123 spigot;
#X obj 380 40 gemmouse 1 1;
#N canvas 323 105 432 211 fenetre 0;
#X obj 168 151 gemwin;
#X obj 103 56 route create;
#X msg 103 85 set destroy;
#X msg 218 83 set create;
#X msg 293 137 destroy;
#N canvas 86 187 247 179 Gem.init 0;
#X obj 59 46 loadbang;
#X msg 118 81 reset;
#X obj 118 113 outlet;
#X obj 59 65 t b b;
#X connect 0 0 3 0;
#X connect 1 0 2 0;
#X connect 3 1 1 0;
#X restore 319 81 pd Gem.init;
#X msg 54 25 create;
#X msg 63 145 0 \, destroy;
#N canvas 192 150 450 300 esc 0;
#X obj 65 20 gemkeyboard;
#X obj 65 167 outlet;
#X obj 89 71 keyname;
#X obj 128 96 sel Escape;
#X obj 65 41 sel 53;
#X obj 189 47 sel Escape;
#X obj 150 22 gemkeyname;
#X connect 0 0 4 0;
#X connect 2 1 3 0;
#X connect 3 0 1 0;
#X connect 4 0 1 0;
#X connect 5 0 1 0;
#X connect 6 1 5 0;
#X restore 63 123 pd esc;
#X msg 148 113 reset \, fullscreen 1 \, create \, 1;
#X obj 134 22 inlet;
#X obj 104 171 outlet;
#X connect 1 0 2 0;
#X connect 1 0 9 0;
#X connect 1 1 3 0;
#X connect 1 1 4 0;
#X connect 2 0 6 0;
#X connect 2 0 11 0;
#X connect 3 0 6 0;
#X connect 3 0 11 0;
#X connect 4 0 0 0;
#X connect 5 0 0 0;
#X connect 6 0 1 0;
#X connect 7 0 0 0;
#X connect 7 0 3 0;
#X connect 8 0 7 0;
#X connect 9 0 0 0;
#X connect 10 0 1 0;
#X restore 7 39 pd fenetre;
#X msg 7 23 create;
#X obj 7 5 loadbang;
#X obj 295 304 circle;
#X obj 105 98 adc~;
#X obj 61 163 *~;
#X obj 156 167 *~;
#X obj 95 287 dac~;
#X obj 181 16 vsl 15 128 0.2 10 1 0 empty empty empty 0 -9 0 10 -262144
-1 -1 5225 1;
#X obj 295 283 translateXYZ 1 1 0;
#X obj 380 229 - 0.5;
#X obj 381 248 * 13;
#X obj 440 228 - 0.5;
#X obj 440 248 * -8;
#X obj 205 7 loadbang;
#X msg 206 26 1;
#N canvas 197 77 450 300 phaser 0;
#X obj 130 36 inlet~;
#X obj 190 266 outlet~;
#X obj 241 14 inlet;
#X obj 371 48 inlet;
#X obj 371 121 osc~;
#X obj 314 231 delread4~ phasel;
#X obj 370 94 * 3;
#X obj 226 201 *~;
#X obj 226 139 line~;
#X msg 239 106 \$1 50;
#X obj 13 187 delwrite~ phasel 10;
#X obj 371 148 *~ -2.5;
#X obj 371 174 +~ 7.5;
#X connect 0 0 1 0;
#X connect 0 0 10 0;
#X connect 2 0 9 0;
#X connect 3 0 6 0;
#X connect 4 0 11 0;
#X connect 5 0 7 1;
#X connect 6 0 4 0;
#X connect 7 0 1 0;
#X connect 8 0 7 0;
#X connect 9 0 8 0;
#X connect 11 0 12 0;
#X connect 12 0 5 0;
#X restore 60 230 pd phaser;
#N canvas 300 187 450 300 phaser 0;
#X obj 169 41 inlet~;
#X obj 190 266 outlet~;
#X obj 231 27 inlet;
#X obj 371 48 inlet;
#X obj 382 150 osc~;
#X obj 377 102 * 3;
#X obj 315 233 delread4~ phaser;
#X obj 226 205 *~;
#X obj 244 130 line~;
#X msg 237 99 \$1 50;
#X obj 29 158 delwrite~ phaser 10;
#X obj 383 171 *~ 2.5;
#X obj 384 192 +~ 7.5;
#X connect 0 0 1 0;
#X connect 0 0 10 0;
#X connect 2 0 9 0;
#X connect 3 0 5 0;
#X connect 4 0 11 0;
#X connect 5 0 4 0;
#X connect 6 0 7 1;
#X connect 7 0 1 0;
#X connect 8 0 7 0;
#X connect 9 0 8 0;
#X connect 11 0 12 0;
#X connect 12 0 6 0;
#X restore 156 235 pd phaser;
#X msg 219 48 \; pd dsp 1 \;;
#X connect 0 0 15 0;
#X connect 0 0 21 1;
#X connect 0 0 22 1;
#X connect 1 0 2 0;
#X connect 2 0 14 0;
#X connect 3 0 17 0;
#X connect 3 0 21 2;
#X connect 3 0 22 2;
#X connect 4 0 0 0;
#X connect 4 1 3 0;
#X connect 4 2 3 1;
#X connect 4 2 0 1;
#X connect 5 0 6 0;
#X connect 6 0 5 0;
#X connect 7 0 6 0;
#X connect 9 0 10 0;
#X connect 9 1 11 0;
#X connect 10 0 21 0;
#X connect 11 0 22 0;
#X connect 13 0 10 1;
#X connect 13 0 11 1;
#X connect 14 0 8 0;
#X connect 15 0 16 0;
#X connect 16 0 14 1;
#X connect 17 0 18 0;
#X connect 18 0 14 2;
#X connect 19 0 20 0;
#X connect 19 0 23 0;
#X connect 20 0 13 0;
#X connect 21 0 12 0;
#X connect 22 0 12 1;
