#N canvas 286 118 418 336 10;
#X obj 152 29 inlet~;
#X obj 139 296 outlet;
#X obj 115 186 snapshot~;
#X obj 210 186 snapshot~;
#X obj 63 133 bang~;
#X obj 241 136 lop~ 690;
#X obj 137 130 lop~ 690;
#X obj 170 232 expr $f1 != 0;
#X obj 170 212 +;
#X obj 170 253 change;
#X obj 92 83 expr~ $v1 > 0.1;
#X obj 209 81 expr~ $v1 < -0.1;
#X connect 0 0 10 0;
#X connect 0 0 11 0;
#X connect 2 0 8 0;
#X connect 3 0 8 1;
#X connect 4 0 2 0;
#X connect 4 0 3 0;
#X connect 5 0 3 0;
#X connect 6 0 2 0;
#X connect 7 0 9 0;
#X connect 8 0 7 0;
#X connect 9 0 1 0;
#X connect 10 0 6 0;
#X connect 11 0 5 0;
