#N canvas 80 129 681 313 10;
#X obj 61 285 dac~;
#X obj 31 236 *~;
#X obj 227 264 hsl 128 15 0 1 0 0 empty empty empty -2 -8 0 10 -262144
-1 -1 10160 1;
#X obj 33 261 hip~ 10;
#X obj 242 220 loadbang;
#X obj 273 9 oscReceive 5000;
#X obj 412 274 oscSend 5001;
#X msg 256 243 0.8;
#X obj 99 261 hip~ 10;
#X obj 89 232 *~;
#N canvas 214 184 450 300 disterb 0;
#X obj 194 28 inlet~;
#X obj 192 247 outlet~;
#X obj 258 29 inlet;
#X obj 362 33 inlet;
#X obj 286 177 rev1~;
#X msg 309 152 5;
#X obj 120 127 disto~;
#X obj 193 216 *~;
#X obj 219 216 *~;
#X obj 256 100 - 1;
#X obj 256 121 * -1;
#X obj 156 104 * 10;
#X obj 352 113 loadbang;
#X connect 0 0 6 0;
#X connect 0 0 7 0;
#X connect 2 0 7 1;
#X connect 2 0 9 0;
#X connect 3 0 11 0;
#X connect 4 0 8 1;
#X connect 5 0 4 1;
#X connect 6 0 4 0;
#X connect 7 0 1 0;
#X connect 8 0 1 0;
#X connect 9 0 10 0;
#X connect 10 0 8 0;
#X connect 11 0 6 1;
#X connect 12 0 5 0;
#X restore 13 126 pd disterb;
#X obj 68 26 adc~;
#N canvas 303 169 450 300 filtorus 0;
#X obj 130 36 inlet~;
#X obj 190 266 outlet~;
#X obj 241 14 inlet;
#X obj 371 48 inlet;
#X obj 177 139 bob~;
#X obj 382 150 osc~;
#X obj 382 173 +~ 1;
#X obj 381 194 *~ 50;
#X obj 191 186 delwrite~ phasel 100;
#X obj 217 236 delread4~ phasel;
#X obj 245 87 loadbang;
#X msg 230 109 2;
#X obj 209 56 * 5000;
#X obj 382 104 * 3;
#X connect 0 0 4 0;
#X connect 2 0 12 0;
#X connect 3 0 13 0;
#X connect 4 0 1 0;
#X connect 4 0 8 0;
#X connect 5 0 6 0;
#X connect 6 0 7 0;
#X connect 7 0 9 0;
#X connect 9 0 1 0;
#X connect 10 0 11 0;
#X connect 11 0 4 2;
#X connect 12 0 4 1;
#X connect 13 0 5 0;
#X restore 20 189 pd filtorus;
#X obj 425 182 clipDetect;
#X obj 425 204 clipDetect;
#X obj 45 74 *~;
#X obj 113 76 *~;
#X obj 273 33 route gain;
#N canvas 215 178 450 300 disterb 0;
#X obj 194 28 inlet~;
#X obj 192 247 outlet~;
#X obj 258 29 inlet;
#X obj 362 33 inlet;
#X obj 286 177 rev1~;
#X msg 309 142 5;
#X obj 120 113 disto~;
#X obj 193 216 *~;
#X obj 219 216 *~;
#X obj 256 100 - 1;
#X obj 256 121 * -1;
#X obj 155 90 * 10;
#X obj 335 104 loadbang;
#X connect 0 0 6 0;
#X connect 0 0 7 0;
#X connect 2 0 7 1;
#X connect 2 0 9 0;
#X connect 3 0 11 0;
#X connect 4 0 8 1;
#X connect 5 0 4 1;
#X connect 6 0 4 0;
#X connect 7 0 1 0;
#X connect 8 0 1 0;
#X connect 9 0 10 0;
#X connect 10 0 8 0;
#X connect 11 0 6 1;
#X connect 12 0 5 0;
#X restore 103 132 pd disterb;
#N canvas 302 175 450 300 filtorus 0;
#X obj 169 41 inlet~;
#X obj 190 266 outlet~;
#X obj 231 27 inlet;
#X obj 371 48 inlet;
#X obj 212 112 bob~;
#X obj 382 150 osc~;
#X obj 382 173 +~ 1;
#X obj 381 194 *~ 50;
#X obj 276 66 loadbang;
#X msg 272 86 2;
#X obj 377 102 * 3;
#X obj 226 56 * 5000;
#X obj 223 174 delwrite~ phaser 100;
#X obj 217 236 delread4~ phaser;
#X connect 0 0 4 0;
#X connect 2 0 11 0;
#X connect 3 0 10 0;
#X connect 4 0 1 0;
#X connect 4 0 12 0;
#X connect 5 0 6 0;
#X connect 6 0 7 0;
#X connect 7 0 13 0;
#X connect 8 0 9 0;
#X connect 9 0 4 2;
#X connect 10 0 5 0;
#X connect 11 0 4 1;
#X connect 13 0 1 0;
#X restore 113 193 pd filtorus;
#X obj 330 62 route reverb disto freq lfo;
#X obj 182 27 exp;
#X obj 182 6 * 2;
#X obj 182 48 - 1;
#X obj 550 78 loadbang;
#X msg 551 103 \; pd dsp 1 \;;
#X msg 425 231 /clip \$1;
#X connect 1 0 3 0;
#X connect 2 0 1 1;
#X connect 2 0 9 1;
#X connect 3 0 0 0;
#X connect 4 0 7 0;
#X connect 5 0 17 0;
#X connect 7 0 2 0;
#X connect 8 0 0 1;
#X connect 9 0 8 0;
#X connect 10 0 12 0;
#X connect 11 0 15 0;
#X connect 11 1 16 0;
#X connect 12 0 1 0;
#X connect 13 0 26 0;
#X connect 14 0 26 0;
#X connect 15 0 10 0;
#X connect 15 0 13 0;
#X connect 16 0 14 0;
#X connect 16 0 18 0;
#X connect 17 0 22 0;
#X connect 17 1 20 0;
#X connect 18 0 19 0;
#X connect 19 0 9 0;
#X connect 20 0 10 1;
#X connect 20 0 18 1;
#X connect 20 1 10 2;
#X connect 20 1 18 2;
#X connect 20 2 12 1;
#X connect 20 2 19 1;
#X connect 20 3 12 2;
#X connect 20 3 19 2;
#X connect 21 0 23 0;
#X connect 22 0 21 0;
#X connect 23 0 15 1;
#X connect 23 0 16 1;
#X connect 24 0 25 0;
#X connect 26 0 6 0;
