#N canvas 22 114 586 324 10;
#X obj 197 167 list prepend send;
#X obj 197 190 list trim;
#X msg 222 279 disconnect;
#X obj 197 141 packOSC;
#X msg 98 90 typetags \$1;
#X obj 98 68 tgl 15 0 empty empty empty 17 7 0 10 -262144 -1 -1 1 1
;
#X obj 98 45 loadbang;
#X obj 434 222 r echo;
#X obj 197 302 netsend -u -b;
#X obj 237 43 inlet;
#X obj 333 173 \$1;
#X obj 333 149 loadbang;
#X msg 218 251 connect 127.0.0.1;
#X msg 333 200 add2 \$1;
#X connect 0 0 1 0;
#X connect 1 0 8 0;
#X connect 2 0 8 0;
#X connect 3 0 0 0;
#X connect 4 0 3 0;
#X connect 5 0 4 0;
#X connect 6 0 5 0;
#X connect 7 0 12 0;
#X connect 9 0 3 0;
#X connect 10 0 13 0;
#X connect 11 0 10 0;
#X connect 12 0 8 0;
#X connect 13 0 12 0;
